<svg xmlns="http://www.w3.org/2000/svg" xmlns:xlink="http://www.w3.org/1999/xlink" id="icon_facebook" viewBox="0 0 45 45" preserveAspectRatio="xMidYMid meet" fill="#ffffff" width="100%" height="100%"> <path d="M22.54 45a22.5 22.5 0 1 1 11.25-3.038A22.5 22.5 0 0 1 22.54 45zm0-43.453a21.01 21.01 0 1 0 10.49 2.812 20.925 20.925 0 0 0-10.49-2.812z"/><path d="M27.35 18.816l-.254 3.262H23.75v11.25h-4.218v-11.25h-2.222v-3.262h2.25V16.65a5.85 5.85 0 0 1 .73-3.375 3.825 3.825 0 0 1 2.25-1.519 5.316 5.316 0 0 1 1.21 0 14.063 14.063 0 0 1 4.022.394l-.562 3.206a7.594 7.594 0 0 0-1.857-.253 1.35 1.35 0 0 0-1.659 1.181v2.532z"/></svg>