<svg xmlns="http://www.w3.org/2000/svg" xmlns:xlink="http://www.w3.org/1999/xlink" id="icon_googleplus" viewBox="0 0 45 45" preserveAspectRatio="xMidYMid meet" fill="#ffffff" width="100%" height="100%"> <path d="M22.457 45a22.488 22.488 0 0 1-5.088-.59 22.488 22.488 0 0 1 0-43.795 22.066 22.066 0 0 1 11.244.253A22.488 22.488 0 0 1 22.457 45zm0-43.43a20.942 20.942 0 0 0-4.75 41.322 20.52 20.52 0 0 0 10.372-.253 20.942 20.942 0 0 0 0-40.281 21.166 21.166 0 0 0-5.622-.787z"/><path d="M18.493 21.304v2.81h3.739a3.401 3.401 0 0 1-3.71 2.812 4.09 4.09 0 0 1 0-8.18 3.88 3.88 0 0 1 2.642.955c.562-.562.506-.646 1.967-1.995a6.887 6.887 0 1 0-4.638 11.834 6.69 6.69 0 0 0 6.606-8.236zm12.397 0v-2.25h-1.687v2.39h-2.446v1.687h2.446v2.473h1.687V23.16h2.389v-1.715h-2.39z"/></svg>