<svg xmlns="http://www.w3.org/2000/svg" xmlns:xlink="http://www.w3.org/1999/xlink" id="icon_instagram" viewBox="0 0 45 45" preserveAspectRatio="xMidYMid meet" fill="#ffffff" width="100%" height="100%"> <path d="M22.5 14.271c2.7 0 3.021 0 4.05.065.964.064 1.543.193 1.864.321.45.193.836.386 1.157.772.322.321.579.707.772 1.157.128.385.321.9.321 1.864.065 1.093.065 1.414.065 4.05s0 3.021-.065 4.05c-.064.964-.193 1.543-.321 1.864-.193.45-.386.836-.772 1.157a3.648 3.648 0 0 1-1.157.772c-.385.128-.9.321-1.864.321-1.093.065-1.35.065-4.05.065-2.7 0-3.021 0-4.05-.065-.964-.064-1.543-.193-1.864-.321-.515-.129-.836-.386-1.157-.707a3.648 3.648 0 0 1-.772-1.157c-.128-.386-.321-.9-.321-1.865-.065-1.093-.065-1.414-.065-4.05 0-2.635 0-3.021.065-4.05.064-.964.193-1.543.321-1.864.193-.45.386-.836.772-1.157a3.648 3.648 0 0 1 1.157-.772c.385-.128.9-.321 1.864-.321 1.029-.129 1.35-.129 4.05-.129m0-1.864c-2.764 0-3.086 0-4.179.064-1.092.065-1.8.193-2.442.45-.643.258-1.222.579-1.8 1.158-.579.578-.9 1.092-1.158 1.8-.257.642-.45 1.35-.45 2.442-.064 1.093-.064 1.415-.064 4.179 0 2.764 0 3.086.064 4.179.065 1.092.193 1.8.45 2.442.258.643.579 1.222 1.158 1.8.578.579 1.092.9 1.8 1.158.642.257 1.35.45 2.442.45 1.093.064 1.415.064 4.179.064 2.764 0 3.086 0 4.179-.064 1.092-.065 1.8-.193 2.442-.45.643-.258 1.222-.579 1.8-1.158.579-.578.9-1.092 1.158-1.8.257-.642.45-1.35.45-2.442.064-1.093.064-1.415.064-4.179 0-2.764 0-3.086-.064-4.179-.065-1.092-.193-1.8-.45-2.442-.258-.643-.579-1.222-1.158-1.8-.578-.579-1.092-.9-1.8-1.158-.642-.257-1.35-.45-2.442-.45-1.093-.064-1.415-.064-4.179-.064z"/><path d="M22.5 17.357c-2.829 0-5.143 2.314-5.143 5.143 0 2.829 2.314 5.207 5.207 5.207a5.185 5.185 0 0 0 5.207-5.207c0-2.893-2.378-5.143-5.271-5.143zm0 8.486a3.32 3.32 0 0 1-3.343-3.343 3.32 3.32 0 0 1 3.343-3.343 3.32 3.32 0 0 1 3.343 3.343 3.32 3.32 0 0 1-3.343 3.343z"/><path d="M22.5 45C10.093 45 0 34.907 0 22.5S10.093 0 22.5 0 45 10.093 45 22.5 34.907 45 22.5 45zm0-43.714C10.8 1.286 1.286 10.8 1.286 22.5S10.8 43.714 22.5 43.714 43.714 34.2 43.714 22.5 34.2 1.286 22.5 1.286z"/><circle cx="27.9" cy="17.1" r="1.221"/></svg>