<svg xmlns="http://www.w3.org/2000/svg" xmlns:xlink="http://www.w3.org/1999/xlink" id="icon_pinterest" viewBox="0 0 45 45" preserveAspectRatio="xMidYMid meet" fill="#ffffff" width="100%" height="100%"> <path d="M21.899 45c-9.297 0-17.467-6.188-20.566-15.188-4.225-11.53 1.972-24.468 13.241-28.687C16.828.562 19.364 0 21.9 0h1.127C35.14 0 45 10.125 45 22.5S35.14 45 23.026 45zm0-43.313c-8.733 0-16.34 5.625-19.157 14.063C-.92 26.719 4.714 38.531 15.419 42.469c2.254.843 4.226 1.125 6.48 1.125h1.127c11.269 0 20.284-9.282 20.284-20.813 0-11.531-9.015-20.812-20.284-20.812z"/><path d="M23.026 32.625h-1.127c-1.127 0-1.972-.281-3.099-.563.563-.843.845-1.406 1.127-2.25 0-.562.845-2.812.845-2.812.563.844 1.409 1.125 2.254 1.125h.282c3.38 0 5.634-3.094 5.634-7.313 0-3.093-2.817-5.906-5.916-5.906h-.564c-3.944-.281-7.324 2.813-7.606 6.469-.282 1.969.563 3.375 1.972 4.219.282 0 .282 0 .563-.282l.282-.843c0-.282 0-.563-.282-.563-.281-.562-.563-1.406-.563-1.968a5.046 5.046 0 0 1 5.07-5.063h1.128c1.972 0 3.662 1.969 3.38 3.938 0 3.093-1.408 5.625-3.38 5.625-.845 0-1.69-.563-1.69-1.688v-.563c.563-.843.845-2.25 1.126-3.656 0-.843-.563-1.406-1.127-1.687h-.281c-1.409.562-2.254 1.687-1.972 3.093 0 .563 0 1.125.281 1.688l-1.408 5.906c-.282.844-.282 1.688-.282 2.532a11.927 11.927 0 0 1-5.07-4.782 10.188 10.188 0 0 1 0-9.843c1.971-3.375 5.352-5.625 9.296-5.625h1.127c5.916.28 10.142 5.624 9.86 11.25-.282 4.78-4.508 9-9.86 9.562z"/></svg>