<svg xmlns="http://www.w3.org/2000/svg" xmlns:xlink="http://www.w3.org/1999/xlink" id="icon_twitter" viewBox="0 0 45 45" preserveAspectRatio="xMidYMid meet" fill="#ffffff" width="100%" height="100%"> <path d="M27.9.658A22.5 22.5 0 1 0 45 22.483 22.5 22.5 0 0 0 27.9.658zm-.366 42.187a20.953 20.953 0 1 1 15.947-20.362 20.953 20.953 0 0 1-15.947 20.334z"/><path d="M33.3 15.508a8.831 8.831 0 0 1-1.463.506 4.725 4.725 0 0 0 1.21-1.969.253.253 0 0 0 0-.281.253.253 0 0 0-.281 0 8.69 8.69 0 0 1-2.616 1.012 4.725 4.725 0 0 0-8.156 3.32 4.95 4.95 0 0 0 0 .73 12.29 12.29 0 0 1-5.119-1.518 12.431 12.431 0 0 1-3.544-3.01.253.253 0 0 0-.225 0 .253.253 0 0 0-.197 0 4.725 4.725 0 0 0 .732 5.625 4.247 4.247 0 0 1-1.013-.253.253.253 0 0 0-.394.225 4.725 4.725 0 0 0 2.813 4.275 3.938 3.938 0 0 1-.872 0 .253.253 0 0 0-.253 0 .253.253 0 0 0 0 .253 4.725 4.725 0 0 0 2.953 3.038l.647.197-.816.45a8.634 8.634 0 0 1-4.022.984h-1.04a.253.253 0 0 0-.282.169.253.253 0 0 0 0 .31 12.797 12.797 0 0 0 5.513 1.883 12.628 12.628 0 0 0 1.66 0 12.46 12.46 0 0 0 9.365-3.88 13.36 13.36 0 0 0 3.544-8.945v-.45a9.197 9.197 0 0 0 2.306-2.306.253.253 0 0 0 0-.31.253.253 0 0 0-.45-.055z"/></svg>