<svg xmlns="http://www.w3.org/2000/svg" xmlns:xlink="http://www.w3.org/1999/xlink" id="icon_youtube" viewBox="0 0 45 45" preserveAspectRatio="xMidYMid meet" fill="#ffffff" width="100%" height="100%"> <path d="M22.5 45A22.5 22.5 0 1 1 45 22.5 22.5 22.5 0 0 1 22.5 45zm0-43.453A20.953 20.953 0 1 0 43.453 22.5 21.01 21.01 0 0 0 22.5 1.547z"/><path d="M29.616 14.878H15.384a3.656 3.656 0 0 0-3.74 3.74v7.763a3.656 3.656 0 0 0 3.74 3.74h14.232a3.656 3.656 0 0 0 3.74-3.74v-7.79a3.628 3.628 0 0 0-3.74-3.713zM22.5 24.947l-2.813 1.687v-8.437l2.813 1.772 4.219 2.531z"/></svg>